# xmcd
#
# Track frame offsets: 
#        150
#        10794
#        21509
#        54489
#        75607
#        91909
#        102406
#        113331
#        122036
#        140386
#        166362
#        181818
#        195607
#        207331
#        219237
#        223481
#        244821
#        253932
#        278794
#        292284
#
# Disc length: 4546 seconds
#
# Revision: 1
# Processed by: cddbd v1.5.2PL0 Copyright (c) Steve Scherf et al.
# Submitted via: ExactAudioCopy v1.0b3
#
DISCID=2b11c014
DTITLE=The Waterboys - CD4: Fisherman's Box
DYEAR=1987
DGENRE=misc
TTITLE0=Billy the Kid
TTITLE1=Tonight the Bottle Let Me Down
TTITLE2=Come Live With Me
TTITLE3=I Miss the Road
TTITLE4=Higher in Time (Two Pianos)
TTITLE5=Too Hot for Cleanhead (Fast Version)
TTITLE6=Higher in Time (Scottish)
TTITLE7=Higherbound (3rd Tune)
TTITLE8=A Golden Age
TTITLE9=You in the Sky (2013 - Remaster)
TTITLE10=I Will Meet You in Heaven Again
TTITLE11=Nobody 'Cept You (2013 - Remaster)
TTITLE12=(He Hasn't Been the Same Since) Jimmy Shand
TTITLE13=Rattle My Bones and Shiver My Soul (2013 - Remaster)
TTITLE14=The Scotsman's Delight
TTITLE15=Killing My Heart
TTITLE16=Industrial Mr Brown
TTITLE17=Custer's Blues
TTITLE18=Shall We Gather By the River
TTITLE19=Higher in Time Symphony
EXTD=
EXTT0=
EXTT1=
EXTT2=
EXTT3=
EXTT4=
EXTT5=
EXTT6=
EXTT7=
EXTT8=
EXTT9=
EXTT10=
EXTT11=
EXTT12=
EXTT13=
EXTT14=
EXTT15=
EXTT16=
EXTT17=
EXTT18=
EXTT19=
PLAYORDER=
